<?xml version="1.0" encoding="UTF-8"?>
<svg xmlns="http://www.w3.org/2000/svg" version="1.1" width="200" height="200" viewBox="0 0 200 200"><rect x="0" y="0" width="200" height="200" fill="#ffffff"/><g transform="scale(5.714)"><g transform="translate(1,1)"><path fill-rule="evenodd" d="M10 0L10 2L11 2L11 0ZM12 0L12 1L13 1L13 2L12 2L12 4L13 4L13 5L11 5L11 6L10 6L10 4L11 4L11 3L8 3L8 4L9 4L9 5L8 5L8 7L9 7L9 8L6 8L6 9L7 9L7 10L6 10L6 11L5 11L5 10L4 10L4 9L5 9L5 8L0 8L0 10L1 10L1 12L3 12L3 13L1 13L1 16L0 16L0 17L1 17L1 18L0 18L0 25L1 25L1 22L2 22L2 21L3 21L3 22L4 22L4 23L5 23L5 21L4 21L4 20L5 20L5 18L6 18L6 19L7 19L7 20L6 20L6 21L7 21L7 22L6 22L6 23L7 23L7 22L8 22L8 23L9 23L9 24L11 24L11 25L8 25L8 27L9 27L9 26L10 26L10 27L11 27L11 25L12 25L12 26L13 26L13 27L12 27L12 29L13 29L13 28L14 28L14 29L16 29L16 30L15 30L15 31L14 31L14 32L15 32L15 33L16 33L16 32L17 32L17 33L18 33L18 32L17 32L17 31L16 31L16 30L20 30L20 31L19 31L19 32L20 32L20 33L21 33L21 32L24 32L24 33L26 33L26 32L28 32L28 30L29 30L29 31L30 31L30 32L29 32L29 33L30 33L30 32L31 32L31 33L32 33L32 32L31 32L31 31L32 31L32 30L30 30L30 29L29 29L29 27L30 27L30 28L32 28L32 27L31 27L31 26L33 26L33 25L30 25L30 24L32 24L32 22L33 22L33 21L32 21L32 20L33 20L33 19L32 19L32 20L31 20L31 18L33 18L33 16L32 16L32 17L30 17L30 16L31 16L31 15L30 15L30 16L28 16L28 15L27 15L27 17L25 17L25 16L24 16L24 17L23 17L23 15L22 15L22 13L23 13L23 14L28 14L28 13L30 13L30 14L33 14L33 13L32 13L32 11L31 11L31 10L30 10L30 8L29 8L29 11L28 11L28 12L27 12L27 11L26 11L26 12L27 12L27 13L25 13L25 12L23 12L23 10L28 10L28 8L27 8L27 9L26 9L26 8L25 8L25 9L23 9L23 10L20 10L20 9L21 9L21 8L24 8L24 7L25 7L25 4L21 4L21 3L22 3L22 2L23 2L23 1L24 1L24 0L23 0L23 1L22 1L22 0L18 0L18 1L17 1L17 2L19 2L19 1L20 1L20 2L21 2L21 3L20 3L20 4L19 4L19 3L16 3L16 1L14 1L14 0ZM8 1L8 2L9 2L9 1ZM21 1L21 2L22 2L22 1ZM13 2L13 4L14 4L14 6L13 6L13 7L12 7L12 6L11 6L11 7L12 7L12 9L11 9L11 8L10 8L10 9L9 9L9 11L8 11L8 10L7 10L7 11L6 11L6 12L7 12L7 11L8 11L8 13L3 13L3 14L4 14L4 15L3 15L3 16L1 16L1 17L2 17L2 18L1 18L1 19L4 19L4 18L3 18L3 16L4 16L4 15L5 15L5 14L8 14L8 15L6 15L6 16L5 16L5 17L6 17L6 18L8 18L8 19L9 19L9 20L7 20L7 21L9 21L9 22L10 22L10 23L11 23L11 22L13 22L13 23L12 23L12 25L14 25L14 26L16 26L16 27L14 27L14 28L19 28L19 29L20 29L20 30L23 30L23 29L24 29L24 30L25 30L25 31L24 31L24 32L25 32L25 31L26 31L26 30L28 30L28 29L24 29L24 27L22 27L22 26L19 26L19 27L17 27L17 26L16 26L16 25L17 25L17 24L18 24L18 25L24 25L24 23L25 23L25 24L30 24L30 21L31 21L31 22L32 22L32 21L31 21L31 20L30 20L30 17L27 17L27 18L25 18L25 17L24 17L24 18L23 18L23 17L22 17L22 16L20 16L20 14L21 14L21 13L22 13L22 12L21 12L21 13L20 13L20 12L18 12L18 11L20 11L20 10L18 10L18 11L16 11L16 13L15 13L15 12L14 12L14 11L15 11L15 10L16 10L16 9L15 9L15 7L16 7L16 8L18 8L18 9L19 9L19 8L21 8L21 7L22 7L22 6L23 6L23 7L24 7L24 5L21 5L21 4L20 4L20 5L18 5L18 6L17 6L17 5L16 5L16 4L14 4L14 2ZM24 2L24 3L25 3L25 2ZM15 5L15 6L14 6L14 7L15 7L15 6L16 6L16 7L17 7L17 6L16 6L16 5ZM20 5L20 7L21 7L21 5ZM9 6L9 7L10 7L10 6ZM18 6L18 8L19 8L19 6ZM13 8L13 9L12 9L12 10L15 10L15 9L14 9L14 8ZM31 8L31 9L32 9L32 10L33 10L33 9L32 9L32 8ZM1 9L1 10L3 10L3 9ZM10 9L10 11L11 11L11 9ZM4 11L4 12L5 12L5 11ZM12 11L12 13L14 13L14 14L11 14L11 16L10 16L10 15L9 15L9 16L6 16L6 17L9 17L9 18L10 18L10 17L12 17L12 18L13 18L13 17L14 17L14 19L15 19L15 21L14 21L14 20L13 20L13 19L12 19L12 21L14 21L14 22L15 22L15 25L16 25L16 24L17 24L17 23L18 23L18 22L20 22L20 21L21 21L21 22L22 22L22 23L20 23L20 24L23 24L23 22L27 22L27 23L28 23L28 21L30 21L30 20L29 20L29 19L28 19L28 18L27 18L27 19L26 19L26 20L28 20L28 21L21 21L21 20L23 20L23 19L22 19L22 17L21 17L21 20L20 20L20 21L18 21L18 20L19 20L19 18L20 18L20 16L19 16L19 18L15 18L15 17L14 17L14 16L15 16L15 15L16 15L16 16L17 16L17 17L18 17L18 16L17 16L17 15L18 15L18 14L20 14L20 13L18 13L18 12L17 12L17 13L16 13L16 14L15 14L15 13L14 13L14 12L13 12L13 11ZM29 11L29 12L30 12L30 13L31 13L31 12L30 12L30 11ZM9 12L9 13L11 13L11 12ZM17 13L17 14L16 14L16 15L17 15L17 14L18 14L18 13ZM14 14L14 15L12 15L12 17L13 17L13 16L14 16L14 15L15 15L15 14ZM9 16L9 17L10 17L10 16ZM24 18L24 19L25 19L25 18ZM17 19L17 20L16 20L16 21L15 21L15 22L16 22L16 21L17 21L17 20L18 20L18 19ZM1 20L1 21L2 21L2 20ZM9 20L9 21L10 21L10 22L11 22L11 21L10 21L10 20ZM2 23L2 25L3 25L3 23ZM4 24L4 25L5 25L5 24ZM6 24L6 25L7 25L7 24ZM25 25L25 28L28 28L28 25ZM29 25L29 26L30 26L30 25ZM26 26L26 27L27 27L27 26ZM19 27L19 28L20 28L20 29L21 29L21 28L22 28L22 27ZM8 28L8 33L12 33L12 31L13 31L13 30L10 30L10 31L11 31L11 32L9 32L9 28ZM10 28L10 29L11 29L11 28ZM15 31L15 32L16 32L16 31ZM0 0L0 7L7 7L7 0ZM1 1L1 6L6 6L6 1ZM2 2L2 5L5 5L5 2ZM26 0L26 7L33 7L33 0ZM27 1L27 6L32 6L32 1ZM28 2L28 5L31 5L31 2ZM0 26L0 33L7 33L7 26ZM1 27L1 32L6 32L6 27ZM2 28L2 31L5 31L5 28Z" fill="#000000"/></g></g></svg>
