<?xml version="1.0" encoding="UTF-8"?>
<svg xmlns="http://www.w3.org/2000/svg" version="1.1" width="200" height="200" viewBox="0 0 200 200"><rect x="0" y="0" width="200" height="200" fill="#ffffff"/><g transform="scale(5.714)"><g transform="translate(1,1)"><path fill-rule="evenodd" d="M8 0L8 4L10 4L10 3L11 3L11 4L12 4L12 2L11 2L11 0ZM12 0L12 1L13 1L13 0ZM14 0L14 1L16 1L16 0ZM18 0L18 1L17 1L17 2L14 2L14 5L17 5L17 6L16 6L16 7L15 7L15 6L14 6L14 7L15 7L15 8L14 8L14 9L15 9L15 12L14 12L14 13L13 13L13 12L12 12L12 11L13 11L13 9L12 9L12 8L13 8L13 5L11 5L11 6L10 6L10 7L9 7L9 5L8 5L8 7L9 7L9 8L10 8L10 7L11 7L11 6L12 6L12 8L11 8L11 9L7 9L7 8L4 8L4 9L5 9L5 10L4 10L4 11L3 11L3 9L2 9L2 8L0 8L0 10L1 10L1 11L2 11L2 12L1 12L1 13L0 13L0 14L1 14L1 15L2 15L2 16L0 16L0 17L1 17L1 18L0 18L0 20L2 20L2 21L0 21L0 22L2 22L2 23L3 23L3 24L0 24L0 25L3 25L3 24L5 24L5 25L7 25L7 24L8 24L8 23L7 23L7 22L6 22L6 21L10 21L10 22L9 22L9 23L10 23L10 25L8 25L8 26L9 26L9 27L8 27L8 29L9 29L9 31L8 31L8 33L9 33L9 32L10 32L10 33L12 33L12 32L13 32L13 33L15 33L15 31L17 31L17 33L18 33L18 32L19 32L19 33L20 33L20 32L21 32L21 33L22 33L22 28L24 28L24 29L23 29L23 33L25 33L25 32L26 32L26 33L28 33L28 32L29 32L29 33L30 33L30 31L29 31L29 30L30 30L30 29L29 29L29 28L30 28L30 27L29 27L29 25L30 25L30 26L31 26L31 25L33 25L33 24L32 24L32 23L31 23L31 25L30 25L30 22L31 22L31 21L30 21L30 18L31 18L31 17L33 17L33 15L32 15L32 13L33 13L33 12L32 12L32 11L31 11L31 12L32 12L32 13L30 13L30 11L29 11L29 10L30 10L30 9L31 9L31 10L32 10L32 9L33 9L33 8L29 8L29 10L28 10L28 11L29 11L29 12L28 12L28 13L30 13L30 14L28 14L28 15L27 15L27 16L25 16L25 13L27 13L27 11L26 11L26 12L25 12L25 10L24 10L24 9L25 9L25 8L24 8L24 7L25 7L25 6L24 6L24 7L23 7L23 5L25 5L25 0L22 0L22 1L21 1L21 3L20 3L20 5L19 5L19 4L16 4L16 3L18 3L18 1L19 1L19 2L20 2L20 1L19 1L19 0ZM22 1L22 2L24 2L24 1ZM9 2L9 3L10 3L10 2ZM21 3L21 7L22 7L22 5L23 5L23 3ZM18 5L18 6L17 6L17 7L18 7L18 9L19 9L19 11L18 11L18 10L16 10L16 11L18 11L18 13L17 13L17 12L15 12L15 13L14 13L14 14L15 14L15 13L17 13L17 15L15 15L15 16L16 16L16 20L15 20L15 21L14 21L14 19L12 19L12 20L10 20L10 21L11 21L11 24L12 24L12 25L11 25L11 26L12 26L12 25L13 25L13 26L14 26L14 25L13 25L13 24L14 24L14 23L15 23L15 21L17 21L17 19L18 19L18 21L19 21L19 24L18 24L18 25L19 25L19 26L17 26L17 27L20 27L20 29L19 29L19 32L20 32L20 31L21 31L21 30L20 30L20 29L21 29L21 27L24 27L24 26L22 26L22 25L24 25L24 23L23 23L23 22L22 22L22 21L25 21L25 24L28 24L28 23L27 23L27 22L30 22L30 21L25 21L25 20L26 20L26 19L27 19L27 17L28 17L28 18L30 18L30 17L31 17L31 15L30 15L30 17L28 17L28 16L27 16L27 17L25 17L25 16L24 16L24 15L22 15L22 16L23 16L23 17L21 17L21 18L20 18L20 13L21 13L21 14L23 14L23 13L21 13L21 12L20 12L20 13L19 13L19 11L21 11L21 9L19 9L19 7L20 7L20 6L19 6L19 5ZM18 6L18 7L19 7L19 6ZM15 8L15 9L16 9L16 8ZM22 8L22 12L23 12L23 9L24 9L24 8ZM27 8L27 9L28 9L28 8ZM1 9L1 10L2 10L2 9ZM6 9L6 10L5 10L5 11L6 11L6 12L7 12L7 13L5 13L5 14L7 14L7 15L5 15L5 17L4 17L4 18L1 18L1 19L3 19L3 21L2 21L2 22L4 22L4 23L5 23L5 24L7 24L7 23L6 23L6 22L4 22L4 20L9 20L9 18L12 18L12 17L14 17L14 18L15 18L15 17L14 17L14 15L13 15L13 13L12 13L12 12L11 12L11 13L10 13L10 11L11 11L11 10L12 10L12 9L11 9L11 10L8 10L8 11L6 11L6 10L7 10L7 9ZM3 12L3 13L1 13L1 14L3 14L3 16L2 16L2 17L3 17L3 16L4 16L4 12ZM8 12L8 13L7 13L7 14L8 14L8 13L9 13L9 12ZM18 13L18 15L17 15L17 17L18 17L18 16L19 16L19 13ZM10 14L10 15L7 15L7 16L6 16L6 17L7 17L7 16L10 16L10 15L11 15L11 14ZM12 15L12 16L11 16L11 17L12 17L12 16L13 16L13 15ZM8 17L8 18L6 18L6 19L8 19L8 18L9 18L9 17ZM23 17L23 18L22 18L22 19L21 19L21 20L20 20L20 19L19 19L19 21L22 21L22 19L24 19L24 20L25 20L25 19L24 19L24 18L25 18L25 17ZM4 18L4 19L5 19L5 18ZM28 19L28 20L29 20L29 19ZM12 20L12 21L13 21L13 22L14 22L14 21L13 21L13 20ZM32 20L32 21L33 21L33 20ZM16 22L16 24L15 24L15 25L17 25L17 23L18 23L18 22ZM20 22L20 23L21 23L21 25L20 25L20 24L19 24L19 25L20 25L20 26L21 26L21 25L22 25L22 24L23 24L23 23L21 23L21 22ZM12 23L12 24L13 24L13 23ZM25 25L25 28L28 28L28 25ZM26 26L26 27L27 27L27 26ZM9 27L9 29L11 29L11 31L10 31L10 32L12 32L12 31L13 31L13 32L14 32L14 31L15 31L15 30L13 30L13 29L12 29L12 28L13 28L13 27L12 27L12 28L10 28L10 27ZM14 27L14 29L16 29L16 27ZM31 27L31 31L32 31L32 30L33 30L33 28L32 28L32 27ZM24 30L24 31L26 31L26 30ZM32 32L32 33L33 33L33 32ZM0 0L0 7L7 7L7 0ZM1 1L1 6L6 6L6 1ZM2 2L2 5L5 5L5 2ZM26 0L26 7L33 7L33 0ZM27 1L27 6L32 6L32 1ZM28 2L28 5L31 5L31 2ZM0 26L0 33L7 33L7 26ZM1 27L1 32L6 32L6 27ZM2 28L2 31L5 31L5 28Z" fill="#000000"/></g></g></svg>
