<?xml version="1.0" encoding="UTF-8"?>
<svg xmlns="http://www.w3.org/2000/svg" version="1.1" width="200" height="200" viewBox="0 0 200 200"><rect x="0" y="0" width="200" height="200" fill="#ffffff"/><g transform="scale(5.714)"><g transform="translate(1,1)"><path fill-rule="evenodd" d="M10 0L10 2L11 2L11 0ZM12 0L12 1L13 1L13 2L12 2L12 4L13 4L13 2L14 2L14 5L11 5L11 6L10 6L10 4L11 4L11 3L8 3L8 4L9 4L9 5L8 5L8 7L9 7L9 8L6 8L6 9L10 9L10 11L11 11L11 9L12 9L12 10L13 10L13 11L12 11L12 13L14 13L14 15L16 15L16 16L17 16L17 17L18 17L18 16L17 16L17 15L18 15L18 14L20 14L20 16L19 16L19 18L15 18L15 17L14 17L14 16L13 16L13 17L12 17L12 15L13 15L13 14L11 14L11 15L8 15L8 16L6 16L6 15L7 15L7 14L5 14L5 13L8 13L8 12L9 12L9 13L11 13L11 12L9 12L9 10L8 10L8 11L7 11L7 10L6 10L6 11L7 11L7 12L5 12L5 13L4 13L4 14L3 14L3 12L4 12L4 10L5 10L5 8L0 8L0 10L1 10L1 9L3 9L3 10L2 10L2 11L1 11L1 12L0 12L0 13L1 13L1 15L0 15L0 16L1 16L1 15L2 15L2 14L3 14L3 17L2 17L2 18L3 18L3 20L1 20L1 19L0 19L0 20L1 20L1 21L0 21L0 25L1 25L1 21L4 21L4 19L5 19L5 21L7 21L7 22L6 22L6 23L5 23L5 22L4 22L4 23L2 23L2 24L3 24L3 25L4 25L4 24L5 24L5 25L7 25L7 24L8 24L8 27L9 27L9 28L8 28L8 33L9 33L9 30L10 30L10 28L11 28L11 26L10 26L10 27L9 27L9 23L10 23L10 22L11 22L11 24L10 24L10 25L12 25L12 26L13 26L13 27L12 27L12 29L13 29L13 28L14 28L14 29L16 29L16 30L15 30L15 31L14 31L14 32L15 32L15 33L16 33L16 32L17 32L17 33L18 33L18 32L17 32L17 31L16 31L16 30L20 30L20 29L21 29L21 28L22 28L22 27L24 27L24 29L23 29L23 30L21 30L21 31L20 31L20 33L21 33L21 32L23 32L23 33L26 33L26 32L28 32L28 30L29 30L29 31L30 31L30 32L29 32L29 33L30 33L30 32L31 32L31 33L32 33L32 32L31 32L31 31L32 31L32 30L30 30L30 29L29 29L29 27L30 27L30 28L32 28L32 27L31 27L31 26L33 26L33 25L30 25L30 24L32 24L32 23L31 23L31 22L33 22L33 21L32 21L32 20L31 20L31 18L33 18L33 17L30 17L30 16L33 16L33 15L32 15L32 14L33 14L33 13L32 13L32 11L31 11L31 10L30 10L30 8L29 8L29 11L28 11L28 12L27 12L27 11L26 11L26 12L27 12L27 13L25 13L25 12L23 12L23 10L24 10L24 9L25 9L25 10L28 10L28 8L27 8L27 9L26 9L26 8L25 8L25 6L24 6L24 9L23 9L23 10L21 10L21 9L18 9L18 8L22 8L22 7L23 7L23 5L25 5L25 4L23 4L23 3L22 3L22 2L21 2L21 1L24 1L24 2L25 2L25 0L18 0L18 1L17 1L17 2L18 2L18 3L16 3L16 1L14 1L14 0ZM8 1L8 2L9 2L9 1ZM18 1L18 2L19 2L19 4L20 4L20 5L18 5L18 6L17 6L17 5L16 5L16 4L15 4L15 5L14 5L14 6L13 6L13 7L12 7L12 6L11 6L11 7L12 7L12 9L13 9L13 10L14 10L14 11L13 11L13 12L14 12L14 13L15 13L15 14L16 14L16 15L17 15L17 14L18 14L18 13L20 13L20 14L21 14L21 13L22 13L22 15L24 15L24 16L23 16L23 17L22 17L22 16L20 16L20 18L19 18L19 19L20 19L20 20L18 20L18 19L17 19L17 20L16 20L16 21L15 21L15 20L14 20L14 19L15 19L15 18L14 18L14 17L13 17L13 18L12 18L12 17L11 17L11 16L8 16L8 17L6 17L6 16L5 16L5 17L3 17L3 18L5 18L5 19L6 19L6 20L7 20L7 21L8 21L8 20L7 20L7 19L8 19L8 18L9 18L9 22L7 22L7 23L6 23L6 24L7 24L7 23L9 23L9 22L10 22L10 21L11 21L11 22L14 22L14 23L12 23L12 25L14 25L14 26L16 26L16 27L14 27L14 28L19 28L19 29L20 29L20 28L21 28L21 27L22 27L22 26L21 26L21 25L24 25L24 24L30 24L30 21L31 21L31 20L30 20L30 17L27 17L27 15L28 15L28 16L30 16L30 15L31 15L31 14L32 14L32 13L31 13L31 12L30 12L30 11L29 11L29 12L30 12L30 13L28 13L28 14L23 14L23 13L22 13L22 12L21 12L21 13L20 13L20 12L18 12L18 11L21 11L21 10L18 10L18 11L16 11L16 13L15 13L15 12L14 12L14 11L15 11L15 10L16 10L16 9L15 9L15 7L16 7L16 8L18 8L18 6L19 6L19 7L20 7L20 6L21 6L21 7L22 7L22 6L21 6L21 4L22 4L22 5L23 5L23 4L22 4L22 3L21 3L21 2L20 2L20 1ZM20 3L20 4L21 4L21 3ZM15 5L15 6L14 6L14 7L15 7L15 6L16 6L16 7L17 7L17 6L16 6L16 5ZM9 6L9 7L10 7L10 6ZM10 8L10 9L11 9L11 8ZM13 8L13 9L14 9L14 10L15 10L15 9L14 9L14 8ZM31 8L31 9L32 9L32 10L33 10L33 9L32 9L32 8ZM1 12L1 13L2 13L2 12ZM17 12L17 13L16 13L16 14L17 14L17 13L18 13L18 12ZM30 13L30 14L31 14L31 13ZM4 14L4 15L5 15L5 14ZM0 17L0 18L1 18L1 17ZM21 17L21 18L22 18L22 17ZM23 17L23 18L24 18L24 19L21 19L21 20L24 20L24 19L25 19L25 18L27 18L27 19L26 19L26 20L28 20L28 21L18 21L18 20L17 20L17 21L16 21L16 22L15 22L15 21L14 21L14 20L13 20L13 19L12 19L12 21L14 21L14 22L15 22L15 23L14 23L14 24L15 24L15 25L16 25L16 26L17 26L17 27L19 27L19 28L20 28L20 27L19 27L19 26L20 26L20 25L21 25L21 24L22 24L22 23L23 23L23 24L24 24L24 23L23 23L23 22L27 22L27 23L28 23L28 21L30 21L30 20L29 20L29 19L28 19L28 18L27 18L27 17ZM6 18L6 19L7 19L7 18ZM10 18L10 20L11 20L11 18ZM18 22L18 23L17 23L17 24L16 24L16 25L17 25L17 24L18 24L18 25L20 25L20 24L21 24L21 23L22 23L22 22L21 22L21 23L20 23L20 22ZM25 25L25 28L28 28L28 25ZM29 25L29 26L30 26L30 25ZM26 26L26 27L27 27L27 26ZM25 29L25 31L24 31L24 30L23 30L23 32L25 32L25 31L26 31L26 30L28 30L28 29ZM11 30L11 31L10 31L10 32L11 32L11 33L12 33L12 31L13 31L13 30ZM15 31L15 32L16 32L16 31ZM0 0L0 7L7 7L7 0ZM1 1L1 6L6 6L6 1ZM2 2L2 5L5 5L5 2ZM26 0L26 7L33 7L33 0ZM27 1L27 6L32 6L32 1ZM28 2L28 5L31 5L31 2ZM0 26L0 33L7 33L7 26ZM1 27L1 32L6 32L6 27ZM2 28L2 31L5 31L5 28Z" fill="#000000"/></g></g></svg>
