<?xml version="1.0" encoding="UTF-8"?>
<svg xmlns="http://www.w3.org/2000/svg" version="1.1" width="200" height="200" viewBox="0 0 200 200"><rect x="0" y="0" width="200" height="200" fill="#ffffff"/><g transform="scale(5.714)"><g transform="translate(1,1)"><path fill-rule="evenodd" d="M10 0L10 2L11 2L11 0ZM12 0L12 1L13 1L13 2L12 2L12 4L13 4L13 5L11 5L11 6L10 6L10 4L11 4L11 3L8 3L8 4L9 4L9 5L8 5L8 7L9 7L9 8L6 8L6 9L8 9L8 10L6 10L6 11L5 11L5 8L0 8L0 9L1 9L1 10L0 10L0 12L1 12L1 11L2 11L2 12L3 12L3 13L4 13L4 11L5 11L5 12L6 12L6 13L5 13L5 14L2 14L2 16L1 16L1 13L0 13L0 17L2 17L2 16L4 16L4 17L3 17L3 20L4 20L4 19L5 19L5 20L6 20L6 21L7 21L7 20L6 20L6 19L8 19L8 21L11 21L11 18L9 18L9 19L8 19L8 15L9 15L9 17L12 17L12 18L13 18L13 19L12 19L12 21L14 21L14 22L15 22L15 23L14 23L14 24L15 24L15 25L16 25L16 26L14 26L14 25L12 25L12 23L13 23L13 22L11 22L11 25L12 25L12 26L13 26L13 27L12 27L12 29L13 29L13 28L14 28L14 29L16 29L16 30L15 30L15 31L14 31L14 32L15 32L15 33L16 33L16 32L17 32L17 33L18 33L18 32L17 32L17 31L16 31L16 30L20 30L20 29L21 29L21 28L22 28L22 27L24 27L24 29L23 29L23 30L21 30L21 32L22 32L22 33L26 33L26 32L28 32L28 30L29 30L29 31L30 31L30 32L29 32L29 33L30 33L30 32L31 32L31 33L32 33L32 32L31 32L31 31L32 31L32 30L30 30L30 29L29 29L29 27L30 27L30 28L32 28L32 27L31 27L31 26L33 26L33 25L30 25L30 24L31 24L31 23L32 23L32 24L33 24L33 23L32 23L32 22L33 22L33 21L32 21L32 20L33 20L33 19L32 19L32 20L31 20L31 18L33 18L33 16L32 16L32 17L30 17L30 16L31 16L31 15L30 15L30 16L28 16L28 15L27 15L27 17L22 17L22 18L21 18L21 20L20 20L20 21L18 21L18 20L19 20L19 18L20 18L20 16L22 16L22 15L21 15L21 14L22 14L22 13L23 13L23 14L28 14L28 13L30 13L30 14L33 14L33 13L32 13L32 11L31 11L31 10L30 10L30 8L29 8L29 11L28 11L28 12L27 12L27 11L26 11L26 12L27 12L27 13L25 13L25 12L23 12L23 10L28 10L28 8L27 8L27 9L26 9L26 8L25 8L25 9L23 9L23 10L21 10L21 9L18 9L18 8L20 8L20 7L21 7L21 8L24 8L24 7L25 7L25 6L24 6L24 7L23 7L23 5L25 5L25 4L24 4L24 3L25 3L25 2L24 2L24 3L23 3L23 2L22 2L22 0L21 0L21 1L20 1L20 0L19 0L19 1L20 1L20 2L18 2L18 3L16 3L16 1L14 1L14 0ZM23 0L23 1L24 1L24 0ZM8 1L8 2L9 2L9 1ZM13 2L13 4L14 4L14 2ZM19 3L19 4L20 4L20 5L18 5L18 6L17 6L17 5L16 5L16 4L15 4L15 5L14 5L14 6L13 6L13 7L12 7L12 6L11 6L11 7L12 7L12 9L11 9L11 8L10 8L10 9L9 9L9 10L8 10L8 11L9 11L9 12L8 12L8 14L7 14L7 13L6 13L6 14L7 14L7 15L6 15L6 16L5 16L5 18L7 18L7 17L6 17L6 16L7 16L7 15L8 15L8 14L9 14L9 12L11 12L11 13L10 13L10 14L14 14L14 15L12 15L12 17L13 17L13 18L14 18L14 19L13 19L13 20L14 20L14 21L15 21L15 22L16 22L16 21L17 21L17 20L18 20L18 19L17 19L17 20L16 20L16 21L15 21L15 18L19 18L19 16L20 16L20 14L21 14L21 13L22 13L22 12L21 12L21 11L20 11L20 10L18 10L18 11L16 11L16 13L15 13L15 12L14 12L14 11L15 11L15 10L16 10L16 9L15 9L15 7L16 7L16 8L18 8L18 6L19 6L19 7L20 7L20 5L21 5L21 4L22 4L22 5L23 5L23 4L22 4L22 3L21 3L21 4L20 4L20 3ZM15 5L15 6L14 6L14 7L15 7L15 6L16 6L16 7L17 7L17 6L16 6L16 5ZM9 6L9 7L10 7L10 6ZM21 6L21 7L22 7L22 6ZM13 8L13 9L12 9L12 10L13 10L13 9L14 9L14 10L15 10L15 9L14 9L14 8ZM31 8L31 9L32 9L32 10L33 10L33 9L32 9L32 8ZM3 9L3 11L4 11L4 9ZM10 9L10 11L11 11L11 9ZM6 11L6 12L7 12L7 11ZM12 11L12 13L14 13L14 14L15 14L15 15L16 15L16 16L17 16L17 17L18 17L18 16L17 16L17 15L18 15L18 14L20 14L20 13L21 13L21 12L19 12L19 11L18 11L18 12L17 12L17 13L16 13L16 14L15 14L15 13L14 13L14 12L13 12L13 11ZM29 11L29 12L30 12L30 13L31 13L31 12L30 12L30 11ZM18 12L18 13L17 13L17 14L16 14L16 15L17 15L17 14L18 14L18 13L19 13L19 12ZM23 15L23 16L24 16L24 15ZM13 16L13 17L14 17L14 18L15 18L15 17L14 17L14 16ZM27 17L27 18L22 18L22 20L21 20L21 21L20 21L20 22L18 22L18 23L17 23L17 24L16 24L16 25L17 25L17 24L18 24L18 25L20 25L20 26L19 26L19 27L17 27L17 26L16 26L16 27L14 27L14 28L21 28L21 25L24 25L24 23L25 23L25 24L30 24L30 21L31 21L31 22L32 22L32 21L31 21L31 20L30 20L30 17ZM27 18L27 19L26 19L26 20L28 20L28 21L21 21L21 23L20 23L20 25L21 25L21 24L23 24L23 23L22 23L22 22L27 22L27 23L28 23L28 21L30 21L30 20L29 20L29 19L28 19L28 18ZM9 19L9 20L10 20L10 19ZM23 19L23 20L24 20L24 19ZM0 21L0 25L1 25L1 21ZM3 21L3 22L2 22L2 25L3 25L3 24L4 24L4 25L5 25L5 24L6 24L6 25L7 25L7 24L9 24L9 23L10 23L10 22L9 22L9 23L7 23L7 22L6 22L6 23L5 23L5 24L4 24L4 23L3 23L3 22L5 22L5 21ZM6 23L6 24L7 24L7 23ZM8 25L8 27L9 27L9 25ZM25 25L25 28L28 28L28 25ZM29 25L29 26L30 26L30 25ZM10 26L10 28L11 28L11 26ZM26 26L26 27L27 27L27 26ZM8 28L8 33L9 33L9 30L11 30L11 32L10 32L10 33L12 33L12 31L13 31L13 30L11 30L11 29L9 29L9 28ZM25 29L25 31L23 31L23 32L25 32L25 31L26 31L26 30L28 30L28 29ZM15 31L15 32L16 32L16 31ZM19 31L19 32L20 32L20 31ZM0 0L0 7L7 7L7 0ZM1 1L1 6L6 6L6 1ZM2 2L2 5L5 5L5 2ZM26 0L26 7L33 7L33 0ZM27 1L27 6L32 6L32 1ZM28 2L28 5L31 5L31 2ZM0 26L0 33L7 33L7 26ZM1 27L1 32L6 32L6 27ZM2 28L2 31L5 31L5 28Z" fill="#000000"/></g></g></svg>
